<?xml version="1.0" encoding="UTF-8"?>
<svg width="120px" height="120px" viewBox="0 0 120 120" version="1.1" xmlns="http://www.w3.org/2000/svg" xmlns:xlink="http://www.w3.org/1999/xlink">
    <!-- Generator: Sketch 60.1 (88133) - https://sketch.com -->
    <title>Artboard</title>
    <desc>Created with Sketch.</desc>
    <defs>
        <polygon id="path-1" points="0 0.0231328244 16.8862861 0.0231328244 16.8862861 15.9168733 0 15.9168733"></polygon>
    </defs>
    <g id="Artboard" stroke="none" stroke-width="1" fill="none" fill-rule="evenodd">
        <g id="Group-28">
            <g id="Group-36">
                <path d="M105.399047,68.8188289 C105.843245,67.5129661 106.287311,66.2071032 106.731907,64.9012403 C106.853581,64.5437947 106.975918,64.1864747 107.099578,63.8296568 C107.578068,62.4479607 107.717749,62.8607746 106.444204,61.9568026 C105.121274,61.0178017 103.762596,60.124376 102.422851,59.2067189 C102.290187,59.1158195 102.179767,58.9954155 101.92,58.7660326 C102.697711,58.7660326 103.30529,58.7660326 103.912869,58.7660326 C105.346617,58.7657815 106.780497,58.7533518 108.213715,58.7728124 C108.648381,58.7787133 108.885772,58.6773931 109.02585,58.2436121 C109.56061,56.5863301 110.140649,54.942231 110.708508,53.2946165 C110.788742,53.0614671 110.893205,52.8358507 111.029973,52.5 C111.62921,54.2386395 112.206072,55.8590093 112.743877,57.4910554 C113.162258,58.7612616 113.140676,58.7669114 114.539736,58.7664092 C116.339699,58.7657815 118.139663,58.7662837 120,58.8914587 C119.597904,59.1922805 119.206401,59.5070385 118.791727,59.791413 C117.524273,60.6607328 116.253243,61.5257837 114.971489,62.3760196 C114.633342,62.6002549 114.54437,62.7971199 114.693186,63.2025263 C115.29388,64.8392178 115.838305,66.4946165 116.398749,68.1444909 C116.477262,68.375506 116.529427,68.6145564 116.634949,69 C115.144005,67.9706019 113.759509,67.0563347 112.424531,66.081426 C111.054069,65.0807792 111.081079,65.0624486 109.704924,66.0211612 C108.321885,66.9846447 106.925341,67.930802 105.534623,68.8844925 C105.489607,68.8626465 105.444327,68.8406749 105.399047,68.8188289" id="Fill-1" fill="#FFB84C"></path>
                <path d="M108.794555,42 C107.49517,41.085236 106.188203,40.1802753 104.898231,39.2530344 C103.42366,38.1932577 103.429674,38.1838363 101.934054,39.2403028 C100.617281,40.170472 99.3020776,41.1025509 97.8677733,41.9660067 C98.1517318,41.1207571 98.4380436,40.2761441 98.7191259,39.429876 C99.0668836,38.382067 99.3917625,37.326619 99.7650137,36.2875948 C99.9051626,35.8974992 99.8248907,35.66884 99.4874612,35.4334331 C97.8964045,34.3233667 96.319075,33.1944575 94.7374313,32.0716595 C94.6553291,32.0133489 94.5774104,31.949309 94.3866667,31.8025139 C94.7374313,31.7797244 94.9637352,31.7522242 95.1899085,31.7522242 C96.9751081,31.7524788 98.7609614,31.7310897 100.544854,31.7771781 C101.144801,31.7925833 101.376465,31.5724543 101.540016,31.0474039 C102.076295,29.3252031 102.660292,27.6170071 103.229517,25.9046096 C103.260501,25.8112871 103.322209,25.7276406 103.444708,25.5 C103.876006,26.7664102 104.265861,27.900412 104.648133,29.0369602 C104.90516,29.8006003 105.167808,30.5632219 105.395681,31.3352649 C105.505238,31.7065178 105.747492,31.7547705 106.081914,31.7538793 C108.019029,31.7492959 109.956275,31.7559163 111.893389,31.7607543 C112.035892,31.7611363 112.178263,31.7770507 112.466667,31.794493 C111.163883,32.7181691 109.975885,33.5599812 108.788541,34.4025571 C108.454641,34.6394918 108.12401,34.8807553 107.789195,35.1164168 C106.850903,35.7769311 106.864761,35.7714566 107.237882,36.8509672 C107.818219,38.5306445 108.376723,40.2174515 108.944378,41.9013303 C108.894437,41.9341777 108.844496,41.9671525 108.794555,42" id="Fill-6" fill="#FFB84C"></path>
                <path d="M39.5645801,112.484747 C39.2321736,112.274477 39.0573622,112.172241 38.8916887,112.057904 C37.4102946,111.034793 35.918041,110.02517 34.4588957,108.973947 C34.0940432,108.710984 33.8550018,108.768342 33.5386197,108.989831 C32.0478229,110.033616 30.5504045,111.068703 29.0519266,112.102278 C28.8763206,112.223296 28.6787308,112.315321 28.350827,112.5 C28.7456094,111.326624 29.0931132,110.279309 29.4506819,109.235272 C29.7441532,108.378183 30.0462325,107.523741 30.351093,106.670308 C30.468561,106.341667 30.3659255,106.150433 30.056165,105.94281 C28.5431195,104.928523 27.0537795,103.882217 25.5582151,102.844357 C25.3745307,102.716909 25.2035599,102.572695 25.08,102.294857 C25.9088973,102.294857 26.7379271,102.294479 27.566692,102.294857 C28.7585878,102.295487 29.9516755,102.265863 31.1417172,102.311119 C31.6948893,102.332045 31.9176414,102.125305 32.0691446,101.656358 C32.5804679,100.072527 33.1263562,98.4989075 33.6619147,96.9221363 C33.7486582,96.6664846 33.8502342,96.415371 34.0057104,96 C34.4232713,97.1935457 34.7890508,98.2305236 35.1484737,99.2693924 C35.4383692,100.106942 35.7413756,100.941087 35.9967062,101.788217 C36.1147039,102.179763 36.3013018,102.307337 36.7391248,102.301034 C38.6145067,102.273805 40.4906831,102.288554 42.3665947,102.291831 C42.57809,102.292209 42.7895853,102.31717 43.16,102.340869 C42.0703424,103.097235 41.1000067,103.771914 40.1280819,104.444953 C39.4153282,104.938482 38.7151557,105.45029 37.9809478,105.913312 C37.593979,106.15724 37.5362383,106.405076 37.6801928,106.807463 C38.2553487,108.416632 38.8020316,110.035003 39.3536145,111.651609 C39.4255256,111.862509 39.4643284,112.08362 39.5645801,112.484747" id="Fill-8" fill="#FFB84C"></path>
                <path d="M15.3543089,25.5 C15.6956948,26.5951547 16.0364703,27.6903094 16.3787108,28.7852096 C16.6114296,29.5299504 16.8747949,30.2659086 17.0696632,31.0212141 C17.195302,31.5078222 17.4499984,31.631288 17.9012725,31.626324 C19.7699818,31.6054493 21.6388132,31.6175413 23.5733333,31.7392252 C22.9683379,32.2054678 22.3665171,32.67642 21.7573703,33.1369348 C20.8694739,33.8081053 19.9795019,34.4767301 19.0836691,35.1365723 C18.6845309,35.4305992 18.5066342,35.7177527 18.6993047,36.2876048 C19.3244463,38.1361557 19.8758407,40.0116909 20.4939006,42 C18.8211585,40.7407757 17.2390131,39.5692504 15.6820199,38.3624673 C15.3532101,38.1075167 15.152481,38.1275004 14.8375904,38.3704862 C13.2887777,39.5655592 11.7204294,40.7330114 10.0479315,41.9940176 C10.2456081,41.3425762 10.4077542,40.8028905 10.5731969,40.2643503 C10.98833,38.9132268 11.3901544,37.557521 11.8294628,36.2149254 C11.976713,35.7647206 11.8996692,35.4915684 11.520555,35.2137066 C10.191885,34.2399812 8.88568094,33.2330345 7.57190686,32.2374162 C7.3658055,32.0812383 7.16409966,31.9185689 7,31.6222509 C7.49681661,31.6222509 7.99363322,31.62276 8.49044984,31.6221236 C9.87308717,31.6202143 11.256335,31.5939937 12.6382397,31.6278514 C13.1444579,31.6401979 13.3372506,31.4413798 13.4791284,30.9566809 C13.9586071,29.3180219 14.4882681,27.6952735 15.0018121,26.0674337 C15.0618843,25.8770163 15.1407596,25.6930904 15.2108438,25.5059824 C15.2587062,25.5040731 15.3064465,25.5020365 15.3543089,25.5" id="Fill-10" fill="#FFB84C"></path>
                <path d="M68.7733333,109.900853 C67.4013602,110.858818 66.0973719,111.769009 64.7937796,112.679701 C64.6526616,112.778249 64.5149759,112.880923 64.3747819,112.980347 C63.3147469,113.731086 63.3039221,113.734212 63.7041745,114.925415 C64.1832364,116.351981 64.6839478,117.772045 65.1722504,119.195985 C65.2434034,119.403586 65.2966032,119.616689 65.3997025,119.96936 C63.6326254,118.757398 61.9863368,117.655613 60.3768789,116.507432 C59.9190705,116.180648 59.5930074,116.207036 59.1622609,116.510808 C57.5427702,117.652987 55.9054583,118.772405 54.1305927,120 C54.3592329,119.304663 54.5361254,118.749769 54.7241067,118.198251 C55.1758427,116.872234 55.6162259,115.542464 56.0971359,114.22595 C56.2465705,113.816502 56.1482235,113.602148 55.7821616,113.356654 C54.205706,112.299391 52.6532761,111.210113 51.0934537,110.13034 C51.0079116,110.071186 50.9362305,109.994024 50.6933333,109.780045 C51.225991,109.780045 51.5822843,109.779795 51.9387095,109.780045 C53.6092878,109.781546 55.2805261,109.762161 56.9503123,109.797178 C57.4654128,109.808058 57.6762317,109.64648 57.8257983,109.188508 C58.4274969,107.34599 59.0746067,105.516728 59.7676558,103.5 C60.3038777,105.049251 60.7714548,106.428295 61.2601534,107.800585 C61.4903777,108.446773 61.5842364,109.288682 62.0668625,109.656235 C62.4890284,109.977641 63.3691347,109.770665 64.0472667,109.776168 C65.5418766,109.788424 67.0364864,109.787048 68.5309642,109.793927 C68.5687188,109.794052 68.6063415,109.825692 68.7733333,109.900853" id="Fill-12" fill="#FFB84C"></path>
                <path d="M92.2610871,112.424404 C90.6658358,111.319449 89.0543118,110.234904 87.4844617,109.098072 C86.9580473,108.716944 86.5913168,108.697163 86.0559061,109.093536 C84.6842387,110.109289 83.2603135,111.061164 81.8551747,112.035717 C81.6654591,112.167253 81.4631752,112.282159 81.1144372,112.5 C81.6781597,110.838283 82.1666046,109.322843 82.7074395,107.824538 C83.278703,106.241566 83.3050303,106.242952 81.8857356,105.247736 C80.5247843,104.293341 79.1532492,103.35268 77.8133333,102.251 C78.3693825,102.251 78.9252994,102.250874 79.4813486,102.251 C81.0014546,102.251756 82.5216929,102.241425 84.0415342,102.260576 C84.4618455,102.265867 84.6561915,102.133071 84.7854468,101.739344 C85.3953414,99.8830941 86.0428086,98.0381834 86.7418721,96 C86.8912368,96.3547954 86.9854331,96.5463042 87.0536989,96.7458766 C87.5982382,98.3405658 88.1619607,99.9299633 88.6656198,101.53637 C88.8401211,102.092376 89.1061727,102.28275 89.7262542,102.268009 C91.5535565,102.224542 93.3828433,102.253016 95.2114686,102.255788 C95.3792227,102.255914 95.547109,102.273931 95.8933333,102.293838 C94.9983362,102.928841 94.2373572,103.477413 93.466588,104.013512 C92.5427499,104.656074 91.6199702,105.300905 90.6770811,105.917387 C90.3586395,106.125527 90.3260941,106.321319 90.4414581,106.654192 C91.0951434,108.541184 91.723692,110.43624 92.3607076,112.328524 C92.3275008,112.360526 92.294294,112.392402 92.2610871,112.424404" id="Fill-14" fill="#FFB84C"></path>
                <path d="M54.0551706,16.4804375 C54.6957711,14.6040637 55.2658949,12.8987369 55.8616586,11.2016865 C56.2122006,10.2031191 56.2296882,10.2100161 55.3292712,9.58915624 C53.928944,8.62356929 52.5290112,7.65735533 51.1311821,6.68838256 C51.0156058,6.60825138 50.9176487,6.50529724 50.6933333,6.31017343 C51.3769297,6.31017343 51.9132616,6.31042424 52.4498565,6.31004803 C53.9386739,6.30929563 55.4277543,6.29487452 56.9164403,6.31493867 C57.387818,6.32120871 57.6067424,6.16019395 57.7466437,5.72442582 C58.341224,3.87288148 58.9753815,2.03299944 59.6585835,0 C59.9122202,0.695724209 60.112868,1.2227842 60.2965542,1.75523644 C60.7538629,3.08210339 61.2289223,4.40420511 61.6425777,5.74348675 C61.7831363,6.19881743 62.0173131,6.32120871 62.4783035,6.31744669 C64.5127883,6.30014136 66.5477991,6.30992263 68.7733333,6.30992263 C67.7817964,7.00364043 66.9304238,7.60054872 66.0776047,8.19557601 C65.2652834,8.76226269 64.4647959,9.34587849 63.6320943,9.88384836 C63.2443417,10.1343994 63.2192278,10.3863298 63.3580772,10.7773298 C63.946872,12.4363837 64.5073974,14.104592 65.0744971,15.7706683 C65.1398457,15.9629079 65.1811323,16.1625462 65.2714633,16.5 C64.2782171,15.8134301 63.4027824,15.2094993 62.5286627,14.6036875 C61.7155525,14.0400105 60.8879788,13.493388 60.099062,12.9001163 C59.7679799,12.6511955 59.5449795,12.6955874 59.2398002,12.9117786 C57.7302079,13.9810721 56.2090449,15.0356937 54.6899857,16.0929487 C54.5343061,16.201295 54.3650835,16.2920853 54.0551706,16.4804375" id="Fill-16" fill="#FFB84C"></path>
                <path d="M94.3866667,13.8514586 C93.3298178,14.5931816 92.2752138,15.337673 91.2151956,16.0752431 C90.6473522,16.4703924 90.0916581,16.8875644 89.4906685,17.2316211 C89.0082658,17.5077222 88.9815904,17.8193113 89.14402,18.2792701 C89.7949269,20.1221256 90.4178379,21.973916 91.1119273,24 C89.8922526,23.1540785 88.821934,22.4137398 87.7537282,21.6706327 C87.1502296,21.2506921 86.5414487,20.8371697 85.9515519,20.4004919 C85.5825858,20.1272852 85.2877034,20.1397437 84.9038149,20.414964 C83.4996571,21.4215879 82.068956,22.3947374 80.6457822,23.3773252 C80.4359442,23.5221714 80.2131648,23.6501544 79.8369355,23.8857339 C80.1007846,23.0516417 80.302303,22.3768676 80.5278556,21.7095184 C80.9186111,20.5535179 81.2976135,19.3927354 81.7359093,18.2528429 C81.9263349,17.7578996 81.7731493,17.4947603 81.3574351,17.2158906 C79.9020394,16.2394692 78.4667163,15.2359913 77.0249225,14.2413225 C76.837138,14.1118293 76.6562205,13.9735271 76.3066667,13.7184418 L78.6514635,13.7184418 C79.9938188,13.7184418 81.3367022,13.6973001 82.6781331,13.7298936 C83.1478584,13.7412195 83.3331338,13.5592495 83.464266,13.1686306 C84.0399007,11.4528772 84.6374567,9.74379362 85.2299947,8.03332571 C85.2747619,7.90395836 85.3425069,7.7817641 85.4703377,7.5 C85.9239521,8.81431186 86.3279132,9.9777371 86.7268561,11.1427983 C86.9653503,11.8392175 87.207278,12.5350074 87.4259637,13.2370896 C87.5374195,13.5949891 87.743956,13.7242306 88.1425028,13.7198261 C89.8587103,13.7008237 91.5751818,13.711898 93.2915214,13.711898 L94.3417674,13.711898 L94.3866667,13.8514586 Z" id="Fill-18" fill="#FFB84C"></path>
                <path d="M25.08,13.7806866 C25.6221987,13.7806866 25.98327,13.7801832 26.3443412,13.7808124 C27.9213477,13.7837068 29.4994065,13.7569023 31.0748345,13.8045967 C31.7302873,13.8244798 32.0361127,13.6475449 32.2246063,13.0166951 C32.6931439,11.4491977 33.2562571,9.90762378 33.7854336,8.35686339 C33.8655402,8.12204079 33.9678766,7.89426538 34.1250642,7.5 C34.4849516,8.55657586 34.7909085,9.45660331 35.0979177,10.3562532 C35.4304452,11.3306538 35.7775734,12.3009015 36.0903702,13.2810908 C36.2124373,13.6636528 36.4136901,13.7999405 36.8425033,13.7952843 C38.8769982,13.7730102 40.9118877,13.7853427 43.16,13.7853427 C42.8511493,14.0304845 42.6908047,14.1726868 42.5153333,14.2947543 C41.0294825,15.3289301 39.5482355,16.3693981 38.0475209,17.3834391 C37.7038127,17.6157448 37.6272577,17.8218753 37.7631362,18.209471 C38.4164844,20.072699 39.0352382,21.9470011 39.7152885,23.9621213 C39.4381384,23.8010426 39.259247,23.712701 39.0979817,23.6009526 C37.5920056,22.5570869 36.0822149,21.5177515 34.5900503,20.4558902 C34.2309521,20.2004294 33.9709019,20.208735 33.6127245,20.4657059 C32.1618628,21.5070548 30.6890342,22.5204666 29.2222564,23.5415548 C29.0383665,23.6697886 28.8426383,23.7824179 28.496957,24 C28.7954163,23.0927995 29.0312635,22.3601429 29.2775022,21.6306324 C29.6472549,20.5349195 30.0021439,19.4337953 30.4084641,18.3504149 C30.5834094,17.8836641 30.5279004,17.6079426 30.0733058,17.3081851 C28.5789051,16.3227104 27.119888,15.2880312 25.6504794,14.2680756 C25.4993425,14.1631227 25.3695147,14.0297294 25.08,13.7806866" id="Fill-20" fill="#FFB84C"></path>
                <path d="M7,84.1567941 C9.14542099,84.1567941 11.1146626,84.134451 13.0827218,84.1703777 C13.6748474,84.1812953 13.9285405,83.9775415 14.0993334,83.4479084 C14.6837077,81.6350704 15.3168236,79.8370854 16.0805305,78 C16.1809041,78.2566918 16.2923136,78.5099559 16.3799435,78.7705831 C16.9011244,80.3172082 17.4357061,81.8598978 17.9237795,83.416298 C18.0961489,83.9656082 18.3596954,84.1861194 18.9862424,84.1725358 C20.9520681,84.1300078 22.9196018,84.1569211 25.08,84.1569211 C24.538718,84.5464019 24.1384059,84.8391474 23.7329699,85.1251645 C22.4786935,86.0096212 21.2336136,86.9068999 19.9600244,87.7645703 C19.5967612,88.0092019 19.562734,88.2322521 19.6918796,88.6073877 C20.2851877,90.3305994 20.8520886,92.0620629 21.4256898,93.7916221 C21.4831025,93.9649081 21.5215966,94.1441607 21.6060734,94.4589953 C20.093637,93.4007448 18.7100835,92.4118086 17.3038014,91.454102 C15.6536797,90.3304725 16.3997817,90.3210782 14.7240411,91.4598147 C13.3163138,92.4165057 11.9351252,93.4092504 10.3797278,94.5 C10.8191909,93.18163 11.1971687,92.0474637 11.5754091,90.9132974 C11.8368536,90.1291307 12.0869994,89.3412824 12.3652604,88.5629554 C12.4916471,88.2095281 12.4208338,88.0059012 12.0859484,87.7775192 C10.5143914,86.7060659 8.96845332,85.5994476 7.41489525,84.503493 C7.3133392,84.4318935 7.22360726,84.3446793 7,84.1567941" id="Fill-22" fill="#FFB84C"></path>
                <path d="M112.466667,84.2710732 C110.653823,85.5209548 109.004832,86.6753603 107.332415,87.7981503 C106.926487,88.0707235 106.829737,88.3198685 106.993325,88.7754588 C107.653107,90.6131867 108.270138,92.464644 108.802861,94.4023825 C106.976119,93.1531306 105.149378,91.9037528 103.281872,90.6266642 C101.457381,91.8842293 99.6424191,93.1351186 97.6621479,94.5 C97.7506923,94.1580239 97.7864277,93.9729915 97.8467809,93.7956426 C98.4229151,92.101381 98.9872699,90.4032146 99.593713,88.7186517 C99.7439341,88.3012268 99.6541985,88.0887355 99.285462,87.8390867 C97.6359419,86.7220908 96.0099808,85.5738572 94.3866667,84.271577 L95.23889,84.271577 C96.9148808,84.271451 98.5921951,84.2365607 100.266333,84.2878256 C100.953379,84.3088606 101.217954,84.0662654 101.403778,83.4703579 C101.898382,81.8845461 102.464061,80.3187616 103.006312,78.7465533 C103.079901,78.5335583 103.181416,78.3293803 103.321313,78 C103.912139,79.7310414 104.465641,81.3397776 105.009745,82.9512848 C105.45485,84.2696876 105.449953,84.2710732 106.919737,84.2710732 L112.466667,84.2710732 Z" id="Fill-24" fill="#FFB84C"></path>
                <g id="Group-5" transform="translate(0.000000, 53.000000)">
                    <mask id="mask-2" fill="white">
                        <use xlink:href="#path-1"></use>
                    </mask>
                    <g id="Clip-4"></g>
                    <path d="M3.23751971,15.8503084 C3.83127883,14.0376672 4.40940292,12.2198962 5.03046131,10.4162931 C5.17899416,9.98478168 5.08084088,9.76469008 4.71825693,9.51504122 C3.33170219,8.56090382 1.96636642,7.57684275 0.595818978,6.60047634 C0.433760584,6.48493435 0.287833577,6.34777405 -4.96350365e-05,6.10936183 C0.3706,6.09018626 0.582541606,6.07027786 0.794483212,6.06954504 C2.48902336,6.06356031 4.18381168,6.04010992 5.87773139,6.07149924 C6.34727883,6.08017099 6.51889197,5.90343817 6.64732263,5.50404885 C7.18921314,3.81952977 7.75629343,2.14294962 8.31543212,0.46380458 C8.34670219,0.369880916 8.38938832,0.279621374 8.49337372,0.0231328244 C8.74378248,0.73959084 8.95187737,1.3154687 9.14632263,1.89574351 C9.54687737,3.0914687 9.96343942,4.28267481 10.3244102,5.49000305 C10.458673,5.9394687 10.6572131,6.08688855 11.1379285,6.07736183 C12.8111255,6.04487328 14.4854394,6.06478168 16.1592569,6.06478168 C16.3810015,6.06490382 16.602746,6.06478168 16.8243664,6.06478168 C16.844965,6.10899542 16.8656876,6.15308702 16.8862861,6.19717863 C16.5764394,6.43400305 16.2720526,6.67815573 15.9557533,6.9063084 C14.7400672,7.78301069 13.5317022,8.67021679 12.296162,9.51907176 C11.9042934,9.78838473 11.814454,10.0440183 11.9686949,10.4857893 C12.4846511,11.9634076 12.9658628,13.4527511 13.4562569,14.9390412 C13.5503153,15.2241099 13.6247679,15.5152855 13.6067752,15.8968427 C12.8180745,15.3368427 12.0273883,14.7794076 11.2409212,14.2163542 C10.5070672,13.6909191 9.7725927,13.1662168 9.04841752,12.6280794 C8.66908175,12.3461863 8.3546438,12.3314076 7.94614745,12.6317435 C6.4285562,13.7475908 4.88192847,14.8249649 3.34634453,15.9168733 C3.30998686,15.8946443 3.27375328,15.8725374 3.23751971,15.8503084" id="Fill-3" fill="#FFB84C" mask="url(#mask-2)"></path>
                </g>
            </g>
            <g id="GDPR" transform="translate(35.000000, 50.000000)" fill="#3C3C3C" font-family="OpenSans-Bold, Open Sans" font-size="18" font-weight="bold">
                <text>
                    <tspan x="0.728027344" y="19">GDPR</tspan>
                </text>
            </g>
        </g>
    </g>
</svg>