<?xml version="1.0" encoding="utf-8"?>
<!-- Generator: Adobe Illustrator 22.0.1, SVG Export Plug-In . SVG Version: 6.00 Build 0)  -->
<svg version="1.1" id="Layer_1" xmlns="http://www.w3.org/2000/svg" xmlns:xlink="http://www.w3.org/1999/xlink" x="0px" y="0px"
	 viewBox="0 0 1070 27" style="enable-background:new 0 0 1070 27;" xml:space="preserve">
<style type="text/css">
	.st0{fill:#C5C5C5;}
</style>
<g>
	<path class="st0" d="M349.9,19.2c0-0.9,0.4-1,1.2-0.5c1.5,0.9,3,1.6,3,1.6c0-0.5,0.5-0.9,1.4-0.6c0.9,0.2,1.7,0.4,1.7,0.4
		s-0.5-1.1-0.7-1.6c-0.4-0.9,0-1.4,0.4-1.5c0,0-0.5-0.4-0.9-0.6c-0.7-0.5-0.6-1.1,0.1-1.4c1-0.5,2.4-1,2.4-1
		c-0.4-0.2-0.9-0.9-0.4-1.7c0.5-0.7,1.4-1.9,1.4-1.9s-1.4,0-2.4,0c-0.9,0-1.1-0.7-1.1-1.2c0,0-1.4,1-2.4,1.6c-0.9,0.6-1.6,0-1.5-1
		c0.2-1.5,0.4-3.2,0.4-3.2c-0.5,0.5-1.4,0.4-1.9-0.4c-0.6-1.2-1.2-2.7-1.2-2.7s-0.6,1.5-1.2,2.7c-0.4,0.7-1.2,0.9-1.7,0.5
		c0,0,0.1,1.7,0.4,3.2c0.1,0.9-0.6,1.5-1.5,0.9c-1-0.6-2.5-1.6-2.5-1.6c0,0.5-0.2,1.1-1.1,1.2c-1,0-2.4,0-2.4,0s0.9,1.1,1.4,1.9
		c0.5,0.7,0,1.5-0.4,1.7c0,0,1.2,0.6,2.4,1c0.7,0.4,1,0.9,0.1,1.4c-0.2,0.2-0.9,0.6-0.9,0.6c0.5,0.1,0.9,0.6,0.5,1.5
		c-0.2,0.5-0.7,1.6-0.7,1.6s0.9-0.2,1.7-0.4c0.9-0.2,1.2,0.2,1.4,0.6c0,0,1.5-0.9,3-1.6c0.7-0.5,1.2-0.2,1.2,0.5v2.1
		c0,1.2-0.2,2.5-0.6,3.2c-5.6-0.6-10.3-5.1-10.3-11c0-6.1,5.1-11,11.4-11s11.4,5,11.4,11c0,5.7-4.5,10.4-10.1,11V26
		c6.7-0.6,11.9-5.9,11.9-12.5c0-7.1-5.9-12.6-13.2-12.6c-7.2,0-13.1,5.6-13.1,12.5c0,6.1,4.6,11.1,10.6,12.3c1,0.2,1.6,0.4,2.2,1
		c0.6-1.2,0.7-3.7,0.7-5.1L349.9,19.2L349.9,19.2z"/>
	<path class="st0" d="M403,20V6.7h6.6c3.5,0,5.1,1.5,5.2,3.3c0,0.9-0.1,1.7-0.7,2.4c-0.6,0.6-0.9,0.9-2,1.5l5,6.3h-3.6l-4.5-5.7h-3
		V20H403z M406,12.7h1.4c3.6,0,4.3-0.6,4.3-2.4c0-1.7-1.6-2-4-2H406V12.7z"/>
	<path class="st0" d="M373.7,20l5.8-13.4h3.6l5.8,13.4h-3.6l-1.6-3.6h-6.2l-1.6,3.6H373.7z M378.2,14.7h4.6l-2.4-5.3L378.2,14.7z"/>
	<path class="st0" d="M396.1,6.7H393V20h3.1V6.7z"/>
	<path class="st0" d="M439.3,19.5c-1.5,0.6-3.3,0.9-5.6,0.9c-2.6,0-4.7-0.6-6.2-1.9c-1.5-1.2-2.2-3-2.2-5.2s0.7-4.1,2.2-5.2
		c1.5-1.2,3.6-1.9,6.4-1.9c1.7,0,3.5,0.1,5.3,0.5V9c-2-0.6-3.8-0.9-5.2-0.9c-1.7,0-3,0.5-4,1.4c-0.9,0.9-1.4,2.2-1.4,3.8
		s0.5,2.8,1.5,3.8c1,0.9,2.4,1.4,4.1,1.4c1.6,0,3.3-0.4,4.9-1v2H439.3z"/>
	<path class="st0" d="M443.1,20l5.8-13.4h3.6l5.8,13.4h-3.6l-1.6-3.6h-6.2l-1.6,3.6H443.1z M447.8,14.7h4.6l-2.2-5.3L447.8,14.7z"/>
	<path class="st0" d="M481.8,20l5.8-13.4h3.6L497,20h-3.6l-1.6-3.6h-6.2L484,20H481.8z M486.4,14.7h4.6l-2.4-5.3L486.4,14.7z"/>
	<path class="st0" d="M525.4,9.4l2.4,5.3h-4.6L525.4,9.4z M524.4,6.7L518.6,20h2.2l1.6-3.6h6.2l1.6,3.6h3.6L528,6.7H524.4z"/>
	<path class="st0" d="M462.8,20V6.7h3.6l8.4,9.5V6.7h2.6V20H474l-8.7-10v10H462.8z"/>
	<path class="st0" d="M501.4,20V6.7h6.4c2.4,0,4.1,0.6,5.3,1.6c1.2,1.1,1.9,2.7,1.9,4.7c0,2.2-0.6,4-2,5.1c-1.4,1.2-3.1,1.9-5.4,1.9
		H501.4L501.4,20L501.4,20z M504.5,18.2h2.4c1.6,0,2.8-0.4,3.7-1.2c0.9-0.9,1.2-2,1.2-3.7c0-1.2-0.4-2.4-1-3.2c-0.5-0.6-1-1-1.6-1.2
		s-1.5-0.4-2.7-0.4h-1.9L504.5,18.2z"/>
</g>
<g>
	<path class="st0" d="M1040.1,24.7v-5.8h0.4l1-0.2l0.7-0.3l0.7-0.4l0.6-0.4l0.5-0.5l0.5-0.6l0.4-0.8l0.2-0.7l0.2-0.7v-0.6V13
		l-0.2-0.7l-0.3-0.7l-0.4-0.7l-0.4-0.6l-0.8-0.7l-0.6-0.4l-0.7-0.3l-0.7-0.2l-0.7-0.1h-0.4V2.7h0.7l1.1,0.1L1043,3l1.1,0.3l1,0.4
		l1,0.5L1047,5l0.9,0.8l0.8,0.9l0.7,0.9l0.6,0.9l0.4,0.9l0.3,0.9l0.1,0.4V3.1h5.3l7.1,10.5V3.1l5.8,0.1v21.3h-5.3l-7.2-10.4v10.4
		h-5.8v-7.6l-0.1,0.4l-0.4,0.9l-0.5,1l-0.6,0.9l-0.7,0.9l-0.7,0.8l-0.8,0.7l-0.9,0.6l-0.9,0.5l-1,0.4l-1.1,0.4l-1.1,0.2l-1.1,0.1
		L1040.1,24.7z M1040.1,2.7v5.8h-0.4l-0.7,0.1l-0.7,0.2l-0.7,0.3l-0.6,0.4l-0.6,0.5l-0.5,0.5l-0.4,0.6l-0.3,0.6l-0.2,0.7l-0.1,0.7
		V14l0.1,0.7l0.2,0.7l0.3,0.7l0.1,0.3l0.1,0.1l0.2,0.3l0.5,0.5l0.6,0.5l0.6,0.4l0.7,0.3l0.7,0.2l0.7,0.1h0.3v5.8h-0.5l-1.1-0.1
		l-1.1-0.2l-1.1-0.3l-1-0.4l-1-0.5l-0.9-0.6l-0.8-0.7l-0.3-0.3l-0.3-0.3v3.1H1020V3.1h5.7V19h4.9l-0.2-0.4l-0.2-0.5l-0.4-1l-0.3-1
		l-0.2-1.1l-0.1-1.1v-1l0.1-1.1l0.2-1.1l0.3-1.1l0.4-1l0.5-0.9l0.6-0.9L1032,6l0.8-0.8l0.8-0.7l0.9-0.6l0.9-0.5l1-0.4l1-0.3l1.1-0.2
		l1.1-0.1L1040.1,2.7z M979.6,20.9V16h1.3v-4l-1.3,2V4.3l0.7-1.2h6.2v21.3h-5.7v-3.5H979.6z M991.1,24.4h5.7V8.3h4.1V3.1h-13.7v5.2
		h3.9V24.4z M1001.5,24.4h5.8v-8h5.9v8h5.8V3.1h-5.8v8.2h-5.9V3.1h-5.8V24.4L1001.5,24.4z M936.6,8.5l0.5,0.2l0.7,0.3l0.6,0.4
		L939,10l0.5,0.6l0.4,0.6l0.3,0.7l0.2,0.7l0.1,0.7v0.6l-0.1,0.6l-0.1,0.7l-0.3,0.7l-0.3,0.7l-0.5,0.7l-0.6,0.6l-0.7,0.5l-0.7,0.4
		l-0.7,0.3v5.3l0.5-0.1l1.2-0.3l1.1-0.4l1-0.5l0.9-0.6l0.9-0.7L943,21l0.7-0.8l0.6-1l0.3-0.6v5.7h11.8v-5.1h-6.1v-2.9h6.1v-5.1h-6.1
		V8.1h6.1v-5h-11.8V9l-0.1-0.3L944,7.8L943.3,7l-0.9-0.9l-0.9-0.8l-0.9-0.6l-1-0.5l-1.3-0.5L937,3.4l-0.4-0.1V8.5z M979.7,4.4V14
		l-1.3,2h1.3v4.9h-3.3l-0.4,0.4l-0.8,0.8l-0.9,0.7l-0.9,0.6l-1,0.5l-1,0.4l-1,0.3l-1.1,0.2l-1.1,0.1h-1.1l-1.1-0.1l-1.1-0.2
		l-1.1-0.4l-1-0.5l-0.9-0.6l-0.9-0.6l-0.8-0.7l-0.7-0.8l-0.6-0.8l-0.6-0.9l-0.5-1.1l-0.4-1.2l-0.3-1.1l-0.1-1.1v-1.1l0.1-1.1
		l0.2-1.1l0.3-1l0.4-1l0.5-1l0.6-0.9l0.7-0.8l0.7-0.7l0.8-0.7l0.9-0.6l1-0.5l1.1-0.5l1.1-0.3l1.1-0.2l1.1-0.1h1.1l1.1,0.1l1.1,0.2
		l1.1,0.4l1,0.4l0.9,0.5l0.9,0.6l0.8,0.7l0.7,0.7l0.3,0.3l-2.9,4.6l-0.4-0.3l-0.4-0.3l-0.8-0.6l-0.9-0.6l-1-0.5l-1-0.3L968,8.7
		l-0.9,0.1L966.3,9l-0.9,0.3l-0.7,0.4l-0.6,0.5l-0.5,0.6l-0.4,0.6l-0.3,0.7l-0.2,0.7l-0.1,0.7v0.7l0.1,0.7l0.2,0.7l0.3,0.7l0.4,0.6
		l0.5,0.5l0.6,0.4l0.6,0.4l0.7,0.3l0.8,0.2l0.8,0.1l0.8-0.1l0.7-0.1l0.7-0.3l0.6-0.3l0.6-0.4l0.5-0.4l0.2-0.2L979.7,4.4z
		 M932.6,19.2v-11h1.6h0.8l0.7,0.1l0.7,0.1l0.2,0.1V3.3l-0.9-0.1l-1.5-0.1H927v21.3h8.4h0.8l0.5-0.1V19h-0.1l-0.9,0.2l-1,0.1h-0.6
		h-1.5L932.6,19.2L932.6,19.2z"/>
	<path class="st0" d="M1000.3,11.1c-0.2,0-0.5,0.1-0.7,0.2c-0.2,0.1-0.4,0.3-0.5,0.5s-0.2,0.4-0.2,0.7c0,0.2,0.1,0.5,0.2,0.7
		c0.1,0.2,0.3,0.4,0.5,0.5c0.4,0.2,1,0.2,1.4,0c0.2-0.1,0.4-0.3,0.5-0.5c0.2-0.4,0.2-0.9,0-1.4c-0.1-0.2-0.3-0.4-0.5-0.5
		C1000.7,11.2,1000.5,11.1,1000.3,11.1z M1000.3,10.8c0.3,0,0.5,0.1,0.8,0.2c0.3,0.1,0.5,0.3,0.6,0.6c0.3,0.5,0.3,1.1,0,1.6
		c-0.1,0.3-0.3,0.5-0.6,0.6c-0.2,0.1-0.5,0.2-0.8,0.2s-0.6-0.1-0.8-0.2c-0.3-0.1-0.5-0.3-0.6-0.6c-0.1-0.2-0.2-0.5-0.2-0.8
		s0.1-0.6,0.2-0.8c0.1-0.3,0.3-0.5,0.6-0.6C999.7,10.9,1000,10.8,1000.3,10.8z"/>
	<path class="st0" d="M999.6,11.6h1.2c0.3,0,0.5,0.1,0.8,0.2c0.2,0.1,0.2,0.3,0.2,0.5c0,0.4-0.2,0.7-0.6,0.7l0.8,0.9h-0.6l-0.6-0.8
		h-0.6v0.8h-0.5L999.6,11.6z M1000.8,12.8c0.3,0,0.5-0.2,0.5-0.4c0-0.3-0.2-0.4-0.5-0.4h-0.7v0.8
		C1000.1,12.8,1000.8,12.8,1000.8,12.8z"/>
</g>
<g id="Page-1">
	<g id="Artboard" transform="translate(-3989.000000, -2477.000000)">
		<g id="hubspot-logo" transform="translate(3989.000000, 2477.000000)">
			<path id="Shape" class="st0" d="M772,5.7h3.1v6.8h6.5V5.7h3.1v16.8h-3.1v-7H775v7h-3V5.7z M794.3,17c0,1.4-1.1,2.5-2.5,2.5
				s-2.5-1.1-2.5-2.5V9.8h-2.9V17c0,3,2.4,5.5,5.5,5.5c3,0,5.5-2.4,5.5-5.5V9.8h-2.9V17H794.3z M805.4,9.9c-1.3-0.1-2.5,0.5-3.4,1.4
				V5.7h-3V16c0,3.8,2.8,6.5,5.9,6.5c3.5,0,6.5-2.7,6.5-6.3S808.6,9.9,805.4,9.9L805.4,9.9z M805.4,19.7c-1.9-0.1-3.5-1.6-3.5-3.6
				s1.5-3.5,3.5-3.6c1.7,0,3.2,1.7,3.2,3.6S807.1,19.7,805.4,19.7L805.4,19.7z M816.3,10.6c0-1.5,1-1.9,2.1-1.9c0.9,0,2,0.7,2.8,1.4
				l1.9-2.2c-0.9-1.3-2.9-2.2-4.5-2.2c-3.2,0-5.5,1.8-5.5,4.9c0,5.7,7,3.9,7,7c0,1-0.9,1.8-2,1.8c-1.7,0-2.3-0.8-3.1-1.7l-2.1,2.2
				c1.4,1.7,3,2.5,5,2.5c3,0,5.4-1.9,5.4-4.8C823.3,11.4,816.3,13.3,816.3,10.6L816.3,10.6z M831,9.7c-3.1,0-5.9,2.6-5.9,6.5v10.3
				h2.9v-5.6c0.9,0.9,2.1,1.4,3.4,1.4c3.3,0,6.1-2.7,6.1-6.3S834.5,9.7,831,9.7L831,9.7z M831.5,19.6c-2,0-3.6-1.6-3.6-3.6
				s1.6-3.6,3.6-3.6c1.7,0,3.2,1.7,3.2,3.6S833.2,19.6,831.5,19.6L831.5,19.6z M859,19.8c-1.7,0-2.2-0.7-2.2-1.9v-5.1h2.7v-2.6h-2.7
				V6.8l-3,1.3v10.3c0,2.6,1.8,4,4.3,4c0.4,0,0.8,0,1.2-0.1l0.7-2.7C859.8,19.7,859.4,19.7,859,19.8L859,19.8z"/>
			<path id="Shape_1_" class="st0" d="M851.3,12.9c-0.6-1-1.4-1.8-2.3-2.3c-0.7-0.4-1.5-0.7-2.4-0.8V6.7c0.9-0.4,1.4-1.2,1.4-2.1
				c0-1.3-1-2.3-2.3-2.3s-2.3,1-2.3,2.3c0,0.9,0.5,1.8,1.4,2.1v3.1c-0.7,0.1-1.4,0.3-2.1,0.6c-1.3-1-5.7-4.3-8.3-6.3
				c0.3-1.2-0.3-2.5-1.4-3c-1.1-0.5-2.5-0.2-3.2,0.8s-0.7,2.4,0.2,3.3s2.2,1.1,3.3,0.4l0.5,0.4l7.4,5.3c-0.4,0.4-0.8,0.8-1,1.2
				c-0.6,0.9-0.9,2-0.9,3.1V16c0,0.8,0.1,1.5,0.4,2.2c0.2,0.6,0.6,1.2,1,1.7l-2.5,2.5c-0.9-0.3-1.8,0-2.3,0.8s-0.4,1.8,0.2,2.5
				c0.6,0.7,1.7,0.8,2.4,0.3s1.2-1.4,0.9-2.3l2.5-2.5c0.4,0.2,0.7,0.5,1.1,0.6c0.8,0.4,1.7,0.6,2.6,0.6h0.2c2.2,0,4.2-1.1,5.4-3
				c0.6-0.9,0.9-2,0.9-3.1v-0.1C852.2,15,851.9,13.9,851.3,12.9L851.3,12.9z M848.2,18.3c-0.7,0.8-1.5,1.2-2.4,1.2h-0.1
				c-0.5,0-1-0.1-1.5-0.4s-1-0.7-1.3-1.2s-0.5-1-0.5-1.6v-0.2c0-0.6,0.1-1.1,0.4-1.6c0.3-0.5,0.7-1,1.2-1.3s1.1-0.5,1.7-0.5h0.1
				c0.6,0,1.1,0.1,1.6,0.4c0.5,0.3,0.9,0.7,1.3,1.1c0.3,0.5,0.5,1,0.6,1.6c0,0.1,0,0.2,0,0.4C849.1,16.9,848.8,17.7,848.2,18.3
				L848.2,18.3z"/>
		</g>
	</g>
</g>
<path class="st0" d="M258.7,23.4h-76.5c-6.5,0-10.4-4.4-10.4-9.9s4-9.9,10.4-9.9h76.5c6.4,0,10.4,4.4,10.4,9.9
	S265.2,23.5,258.7,23.4z M258.7,0.4h-76.6c-8.1,0-13.5,6-13.5,13.2s5.4,13.1,13.6,13.1h76.5c8.1,0,13.6-5.9,13.6-13.1
	C272.3,6.4,266.8,0.4,258.7,0.4z"/>
<path class="st0" d="M205.7,11.1c-1.1,0-2.1,0.5-2.9,1.2c0-0.2,0-0.9,0-0.9h-3.6v8.2h3.6v-5.4c0-0.7,0.7-1.5,1.7-1.5
	s1.7,0.8,1.7,1.5v5.4h3.6c0,0,0-3.9,0-4.5C209.8,12,207.1,11,205.7,11.1z"/>
<path class="st0" d="M262.7,8.7V7.8h0.6c0.3,0,0.6,0.1,0.6,0.4c0,0.4-0.3,0.5-0.7,0.5H262.7z M264.3,8.2c0-0.6-0.3-0.8-1-0.8h-1v2.8
	h0.4V9h0.5l0.7,1.2h0.5L263.6,9C264,9,264.3,8.7,264.3,8.2z"/>
<path class="st0" d="M217.3,11.5v-1.2h-2V8.6h-3.6v1.7h-2v1.2h2v8.2h3.6v-8.2C215.3,11.5,217.3,11.5,217.3,11.5z"/>
<path class="st0" d="M193.6,19.7h3.6v-8.2h-3.6V19.7z"/>
<path class="st0" d="M193.6,9.8h3.6V7.3h-3.6V9.8z"/>
<path class="st0" d="M257.1,19.1c-0.7,0-1.5-0.5-1.5-1.9c0-0.5,0-1.8,0-1.8s0-1.2,0-1.7c0-1.3,0.8-1.8,1.5-1.8s1.5,0.5,1.5,1.8
	c0,0.5,0,1.4,0,1.8c0,0.1,0,1.3,0,1.7C258.6,18.6,257.9,19.1,257.1,19.1z M257.2,10.9c-2.9,0-5.3,2.1-5.3,4.6c0,2.6,2.4,4.6,5.3,4.6
	c2.9,0,5.3-2.1,5.3-4.6S260.1,10.9,257.2,10.9z"/>
<path class="st0" d="M247,15.5V17c0,1.3-0.9,1.6-1.4,1.6c-0.6,0-1.4-0.3-1.4-1.6c0-0.4,0-1.5,0-1.5s0-1,0-1.5c0-1.3,0.8-1.6,1.4-1.6
	c0.6,0,1.4,0.3,1.4,1.6V15.5z M246.9,11.9c-0.6-0.3-1.2-0.7-2-0.7c-2.6-0.2-4.6,2.1-4.6,4.3c0,2.9,2.1,3.9,2.5,4.1
	c1.2,0.6,2.8,0.6,4.2-0.3v0.5h3.6V7.3H247L246.9,11.9z"/>
<path class="st0" d="M220.7,14.3c0-0.7,0-1.2,0.2-1.6c0.3-0.5,0.8-0.7,1.3-0.7s1,0.2,1.3,0.7c0.2,0.4,0.2,0.9,0.2,1.6H220.7z
	 M227.5,15.6c0-2.6-2.4-4.7-5.3-4.7c-2.9,0-5.3,2.1-5.3,4.6c0,2.6,2.4,4.6,5.3,4.6c2.4,0,4.5-1.4,5.1-3.4h-3.6c0,0,0,0,0,0.5
	c0,1.5-1,1.8-1.5,1.8s-1.5-0.3-1.5-1.8c0-0.5,0-1.7,0-1.7L227.5,15.6z"/>
<path class="st0" d="M187.8,15.9l-5.2-8.6h-3.7v12.4h3.7v-8.6l5.2,8.6h3.7V7.3h-3.7V15.9z"/>
<path class="st0" d="M235.1,11.1c-1.1,0-2.1,0.5-2.9,1.2c0-0.2,0-0.9,0-0.9h-3.6v8.2h3.6v-5.4c0-0.7,0.7-1.5,1.7-1.5
	s1.7,0.8,1.7,1.5v5.4h3.6c0,0,0-3.9,0-4.5C239.2,12,236.4,11,235.1,11.1z"/>
<path class="st0" d="M263.2,10.9c-1.1,0-1.9-0.9-1.9-2c0-1.2,0.8-2,1.9-2s1.9,0.9,1.9,2S264.3,10.9,263.2,10.9z M263.2,6.4
	c-1.3,0-2.4,1-2.4,2.4s1.1,2.4,2.4,2.4s2.4-1,2.4-2.4C265.6,7.4,264.5,6.4,263.2,6.4z"/>
<g id="hkHBYd_1_">
	<g>
		<g>
			<path class="st0" d="M627.9,26.5c-3.7-8.8-7.3-17.5-11.1-26.3c0.5,0,0.8,0,1.2,0c3.1,0,6.2,0,9.3,0c0.5,0,0.7,0.1,0.7,0.6
				c0,8.6,0,17.1,0,25.7C628,26.5,628,26.5,627.9,26.5z"/>
			<path class="st0" d="M597.8,26.5c0-0.3,0-0.5,0-0.7c0-8.3,0-16.6,0-24.9c0-0.7,0.2-0.8,0.8-0.8c3.2,0,6.5,0,9.7,0
				c0.6,0,0.6,0.1,0.4,0.6c-2.6,6.1-5.2,12.3-7.7,18.4c-0.9,2.2-1.8,4.4-2.8,6.6C598.2,26,598.1,26.3,597.8,26.5z"/>
			<path class="st0" d="M682.2,12.2c0-3.1,0-6.2,0-9.4c0-0.6,0.2-0.8,0.8-0.7c0.7,0,1.4,0,2.1,0c0.5,0,0.6,0.1,0.6,0.6
				c0,1.8,0,3.7,0,5.5c0,0.5,0.1,0.6,0.6,0.4C688.2,8,690.2,8,692,9c2.2,1.2,3.5,3.8,3.1,6.6c-0.5,4-3.5,6.8-7.5,7.1
				c-1.6,0.1-3.2,0-4.8-0.5c-0.5-0.1-0.6-0.3-0.6-0.8C682.2,18.5,682.2,15.4,682.2,12.2z M685.9,15.6c0,1.3,0,2.5,0,3.8
				c0,0.3,0,0.5,0.4,0.6c1.8,0.5,4-0.4,5-2c1.1-1.7,1-4.1-0.2-5.5c-1.1-1.3-3.3-1.8-4.9-1.1c-0.3,0.1-0.3,0.4-0.3,0.6
				C685.9,13.1,685.9,14.4,685.9,15.6z"/>
			<path class="st0" d="M662.1,11.6c0,3,0,5.9,0,8.9c0,0.4-0.1,0.6-0.5,0.8c-2.2,0.9-4.4,1.5-6.8,1.3c-3.5-0.4-5.5-2.4-5.8-6
				c-0.3-4.6,2.6-8.1,7.3-8.3c0.6,0,1.2-0.1,1.7,0c0.7,0.2,0.7-0.1,0.7-0.6c0-1.7,0-3.4,0-5c0-0.4,0.1-0.6,0.6-0.6
				c0.7,0,1.5,0,2.2,0c0.6,0,0.8,0.1,0.8,0.7C662.1,5.7,662.1,8.6,662.1,11.6z M658.6,15.5c0-1.3,0-2.5,0-3.8c0-0.2,0-0.5-0.3-0.5
				c-1.7-0.3-3.3-0.3-4.6,1s-1.4,3-1.1,4.7c0.3,1.8,1.4,2.8,3.2,3.1c0.8,0.1,1.5-0.1,2.3-0.1c0.4,0,0.6-0.2,0.5-0.6
				C658.6,18,658.6,16.8,658.6,15.5z"/>
			<path class="st0" d="M638.4,17c-0.9,0-1.7,0-2.6,0c-0.4,0-0.6,0.1-0.7,0.5c-0.5,1.5-1.1,3-1.6,4.5c-0.1,0.4-0.3,0.6-0.8,0.5
				c-0.7,0-1.3,0-2,0c-0.6,0-0.7-0.1-0.5-0.7c1.3-3.5,2.5-7,3.8-10.5c0.6-1.6,1.1-3.2,1.7-4.8c0.3-0.7,0.5-1.4,0.5-2.2
				c0-0.4,0.2-0.5,0.5-0.5c1.2,0,2.4,0,3.5,0c0.4,0,0.4,0.2,0.4,0.4c1.1,3,2.1,5.9,3.2,8.9c1,2.8,2,5.6,3.1,8.5
				c0.3,0.7,0.3,0.8-0.6,0.8c-0.8,0-1.6,0-2.4,0c-0.4,0-0.5-0.1-0.6-0.5c-0.5-1.5-1-2.9-1.5-4.3c-0.1-0.4-0.3-0.6-0.8-0.6
				C640.1,17,639.2,17,638.4,17z M638.5,6.7c-0.8,2.5-1.6,4.8-2.3,7.1c-0.1,0.4-0.1,0.5,0.3,0.5c1.3,0,2.6,0,4,0
				c0.5,0,0.4-0.2,0.3-0.5C639.9,11.5,639.1,9.2,638.5,6.7z"/>
			<path class="st0" d="M706.2,16.1c-1.3,0-2.5,0-3.8,0c-0.5,0-0.7,0.1-0.6,0.7c0.3,1.7,1.4,2.7,3.2,3c1.4,0.2,2.7,0,4.1-0.4
				c0.5-0.2,0.8-0.1,0.7,0.5c0,0.4,0,0.7,0,1.1c0,1.2,0,1.3-1.1,1.6c-2.6,0.7-5.2,0.8-7.6-0.6c-2.7-1.6-3.3-4.3-3-7.2
				c0.2-2.5,1.3-4.6,3.7-5.7c3.1-1.5,7.7-0.7,8.8,3.7c0.2,1,0.2,1.9,0.1,2.9c0,0.4-0.2,0.6-0.6,0.5
				C708.8,16.1,707.5,16.1,706.2,16.1z M704.3,13.9C704.3,13.9,704.3,13.8,704.3,13.9c0.8,0,1.7,0,2.5,0c0.6,0,0.7-0.3,0.6-0.8
				c-0.2-1.3-1.1-2.3-2.4-2.4c-1.8-0.2-3.3,1-3.5,2.8c-0.1,0.4,0.1,0.4,0.4,0.4C702.8,13.9,703.6,13.9,704.3,13.9z"/>
			<path class="st0" d="M679.3,16.1c0,2-0.9,4.2-3.3,5.7c-4.6,2.8-10.3-0.2-10.6-5.5c-0.2-2.6,0.5-4.9,2.7-6.6
				c2.1-1.6,7.1-2.3,9.5,0.7C678.8,11.8,679.3,13.5,679.3,16.1z M675.6,15.4c0-0.9-0.1-1.8-0.4-2.6c-0.5-1.2-1.3-2.1-2.6-2.2
				c-1.3-0.1-2.3,0.5-3,1.6c-1.2,2-1.1,4.1-0.1,6.2c0.6,1.3,1.8,1.8,3.2,1.6c1.3-0.1,2.2-0.9,2.6-2.4
				C675.5,16.9,675.6,16.2,675.6,15.4z"/>
			<path class="st0" d="M612.9,9.9c0.7,1.6,1.3,3,1.9,4.5c1.6,3.8,3.3,7.7,4.9,11.5c0.4,0.9,0.4,0.9-0.6,0.9s-2.1,0-3.1,0
				c-0.4,0-0.6-0.1-0.8-0.5c-0.5-1.4-1.1-2.7-1.7-4.1c-0.2-0.6-0.5-0.8-1.1-0.8c-1.3,0.1-2.6,0-3.8,0c-0.3,0-0.5,0-0.3-0.4
				C609.7,17.4,611.3,13.7,612.9,9.9z"/>
		</g>
	</g>
</g>
<g id="Ipdg6J_1_">
	<g>
		<g>
			<path class="st0" d="M22.3,14.2c0-2.7,0-5.3,0-8c0-0.4-0.1-0.7,0.5-0.7c3.8,0.1,7.7-0.3,11.5,0.2c3.9,0.5,5.4,3.9,3.4,7.2
				c-0.3,0.4-0.3,0.7,0.1,1.1c2.9,3.3,1.4,7.7-2.8,8.7c-0.9,0.2-1.9,0.3-2.8,0.3c-3,0-6,0-8.9,0c-0.8,0-0.9-0.3-0.9-0.9
				C22.3,19.4,22.3,16.8,22.3,14.2z M32.2,11.3c0-1.1-0.9-2-2-2s-1.9,0.9-1.9,2s0.9,2,2,2C31.3,13.3,32.2,12.4,32.2,11.3z
				 M28.3,17.2c0,1.1,0.9,2,2,2s1.9-0.9,1.9-2s-0.9-1.9-1.9-1.9C29.2,15.2,28.3,16,28.3,17.2z"/>
			<path class="st0" d="M10.6,23.3c-1.7,0-3-0.2-4.3-0.7c-3.8-1.5-5.8-5-5.4-9.4c0.4-4,3.1-6.9,7.3-7.7C11,5,13.8,5.3,16.2,7
				c3.1,2.1,4.4,6,3.4,9.9c-0.9,3.5-4,6-7.8,6.3C11.3,23.2,10.9,23.2,10.6,23.3z M10.4,17.1c1.5,0,2.8-1.3,2.8-2.8s-1.3-2.8-2.8-2.9
				c-1.5,0-2.8,1.3-2.8,2.8C7.6,15.8,8.8,17.1,10.4,17.1z"/>
			<path class="st0" d="M102.2,23.3c-3.7-0.1-6.8-1.3-8.6-4.8c-3.1-6,0.8-12.7,7.6-13.2c2.1-0.2,4.2,0.1,6.1,1.2
				c3.4,1.9,5.1,5.7,4.3,9.7c-0.8,3.9-3.9,6.6-7.9,7C103.2,23.2,102.7,23.2,102.2,23.3z M102.2,17.1c1.5,0,2.8-1.3,2.8-2.8
				c0-1.6-1.3-2.8-2.8-2.8s-2.8,1.3-2.8,2.9C99.4,15.8,100.6,17.1,102.2,17.1z"/>
			<path class="st0" d="M59.7,14.2c0-2.7,0-5.3,0-8c0-0.4-0.1-0.7,0.5-0.7c3.5,0.1,6.9-0.2,10.4,0.2c0.5,0.1,1,0.2,1.5,0.3
				c2,0.6,3.2,1.9,3.6,4c0.3,2.1-0.2,4-2.1,5.2c-0.2,0.2-0.6,0.3-0.6,0.6c0,0.4,0.4,0.4,0.7,0.5c1.3,0.5,2.1,1.6,2.5,2.9
				c0.3,1,0.5,2.1,0.5,3.2c0,0.5-0.1,0.7-0.6,0.6c-1.8,0-3.7,0-5.5,0c-0.4,0-0.6-0.2-0.6-0.6c0-0.8-0.2-1.6-0.5-2.3
				c-0.5-1.1-1.2-1.5-2.4-1.5c-0.5,0-0.6,0.1-0.6,0.6c0,1,0,2.1,0,3.1c0,0.5-0.1,0.7-0.6,0.7c-1.8,0-3.6,0-5.4,0
				c-0.6,0-0.7-0.2-0.7-0.8C59.7,19.5,59.7,16.9,59.7,14.2z M69.5,11.6c0-1.3-1-2.2-2.2-2.2s-2.1,1-2.1,2.2s1,2.3,2.2,2.3
				C68.5,13.9,69.5,12.9,69.5,11.6z"/>
			<path class="st0" d="M79,14.1c0-2.6,0-5.2,0-7.8c0-0.6,0.1-0.9,0.8-0.9c2,0,4.1,0,6.1,0c0.7,0,0.8,0.2,0.8,0.8c0,3,0,6,0,9
				c0,1.5,0.4,1.9,1.9,1.9c0.9,0,1.8,0,2.8,0c0.5,0,0.6,0.1,0.6,0.6c0,1.5,0,3,0,4.5c0,0.5-0.2,0.6-0.7,0.6c-3.9,0-7.8,0-11.7,0
				C79,23,79,22.7,79,22.2C79,19.5,79,16.8,79,14.1z"/>
		</g>
	</g>
	<g id="Vo3DTQ_1_">
		<g>
			<g>
				<path class="st0" d="M41.6,14.2c0-2.6,0-5.1,0-7.7c0-0.7,0.2-0.9,0.9-0.9c4.3,0,8.6,0,13,0c0.7,0,0.9,0.2,0.9,0.9
					c-0.1,0.9-0.1,1.8,0,2.7c0,0.7-0.1,0.9-0.8,0.9c-2-0.1-4,0-5.9,0c-0.8,0-1.6,0.1-1.6,1.1s0.7,1.1,1.5,1.1c1.9,0,3.9,0,5.8,0
					c0.9,0,1.1,0.3,1,1.1c-0.1,0.7-0.1,1.5,0,2.2c0.1,0.7-0.1,1-0.9,1c-2-0.1-4,0-6,0c-0.7,0-1.4,0.1-1.4,1s0.7,1,1.4,1
					c2,0,4.1,0,6.1,0c0.6,0,0.8,0.2,0.8,0.8c0,1-0.1,2,0,3c0,0.6-0.2,0.8-0.8,0.8c-4.3,0-8.6,0-13,0c-0.8,0-1-0.3-0.9-1
					C41.6,19.3,41.6,16.8,41.6,14.2z"/>
			</g>
		</g>
	</g>
</g>
</svg>
